<?xml version="1.0" encoding="UTF-8"?>
<svg version="1.1" xmlns="http://www.w3.org/2000/svg" width="512" height="512">
<path d="M0 0 C5.80718771 6.66118591 7.60487256 16.05276215 9.83203125 24.390625 C10.16168381 25.60901062 10.49133636 26.82739624 10.83097839 28.08270264 C11.52122725 30.64340286 12.20829718 33.20471549 12.89038086 35.76757812 C13.76332092 39.04478493 14.65296444 42.31719689 15.54710865 45.58867264 C16.40218507 48.72828244 17.24122294 51.87216934 18.08203125 55.015625 C18.40275101 56.18651672 18.72347076 57.35740845 19.0539093 58.56378174 C19.34138535 59.65551697 19.62886139 60.7472522 19.92504883 61.87207031 C20.3099926 63.30694794 20.3099926 63.30694794 20.70271301 64.77081299 C21.15616036 67.63427357 20.86854189 69.65449116 20.125 72.4375 C18.908125 72.85 17.69125 73.2625 16.4375 73.6875 C15.62023437 73.96464844 14.80296875 74.24179688 13.9609375 74.52734375 C11.95949171 75.16968103 9.94147797 75.76145676 7.9140625 76.31640625 C-2.39013528 79.18668978 -8.95823035 82.84718659 -14.62109375 92.08984375 C-18.94720782 100.18951527 -20.31559473 108.22922272 -18.21875 117.265625 C-14.95910245 127.32557176 -9.57016336 134.03068908 -0.40234375 139.24609375 C7.4351203 142.94072518 15.76470716 144.08205711 24.16796875 141.50390625 C26.00725154 140.77073008 27.84461769 140.03272053 29.6796875 139.2890625 C33.47349827 137.96789517 35.37175502 137.95184053 39.125 139.4375 C41.53341889 144.19530238 42.9013823 149.01288318 44.10546875 154.19921875 C44.46775692 155.66251741 44.83173996 157.12539731 45.19726562 158.58789062 C45.76141013 160.86242875 46.31535239 163.1373911 46.84106445 165.42114258 C48.4851036 174.10684727 48.4851036 174.10684727 53.10620117 181.23632812 C55.17677598 182.30542904 55.17677598 182.30542904 57.25732422 182.83081055 C60.63863439 183.92918385 62.10812504 186.62609854 64.125 189.4375 C65.55732248 192.30214496 65.26814338 194.76489001 65.28613281 197.96679688 C65.29109772 198.63687271 65.29606262 199.30694855 65.30117798 199.99732971 C65.31580024 202.21698018 65.32260058 204.43655926 65.328125 206.65625 C65.33387506 208.19559736 65.33963281 209.73494469 65.34539795 211.27429199 C65.35590719 214.50236343 65.3617508 217.73040995 65.36523438 220.95849609 C65.37072828 225.10161172 65.39477538 229.24440022 65.42320633 233.38741302 C65.44179525 236.56663997 65.44703622 239.74578738 65.44857025 242.92506409 C65.45160428 244.45294489 65.45965796 245.98082405 65.47275543 247.50865173 C65.48974349 249.64209205 65.48795447 251.77472329 65.48144531 253.90820312 C65.48509094 255.12350708 65.48873657 256.33881104 65.49249268 257.59094238 C65.37122009 258.5303064 65.24994751 259.46967041 65.125 260.4375 C61.22414888 263.03806741 58.11604559 262.49390086 53.625 262.3125 C42.70804235 262.0904159 33.50440346 264.39533373 25.3515625 272.1171875 C18.57165365 279.24038287 15.93156397 286.11756369 15.625 295.9375 C15.81793129 302.53708081 16.93891323 307.66667396 20.125 313.4375 C20.45242188 314.07042969 20.77984375 314.70335937 21.1171875 315.35546875 C25.112963 321.96162313 32.3132126 326.03817876 39.40234375 328.640625 C44.57255773 329.74736545 49.46158038 329.49774471 54.71679688 329.27148438 C55.48443359 329.25279297 56.25207031 329.23410156 57.04296875 329.21484375 C58.07587036 329.17218384 58.07587036 329.17218384 59.12963867 329.12866211 C61.92719471 329.56166203 63.10956462 330.44579478 65.125 332.4375 C65.63293457 335.33270264 65.63293457 335.33270264 65.64257812 338.90917969 C65.6495874 339.56161652 65.65659668 340.21405334 65.66381836 340.88626099 C65.68142986 343.04439823 65.66976078 345.20122424 65.65625 347.359375 C65.65894536 348.86289725 65.66282814 350.36641779 65.66784668 351.86993408 C65.67374702 355.02413497 65.66516701 358.17788301 65.64648438 361.33203125 C65.62377212 365.36163077 65.63676415 369.39016006 65.66077423 373.4197197 C65.67528526 376.52716001 65.6706008 379.63435021 65.66026306 382.7417984 C65.65760629 384.22645445 65.66082843 385.71113367 65.67018127 387.19576263 C65.74095432 401.59705967 65.74095432 401.59705967 61.125 407.4375 C55.70145714 412.07605639 49.65992442 412.58648499 42.83036423 412.56892776 C41.72030737 412.57200672 41.72030737 412.57200672 40.58782512 412.57514787 C38.09440183 412.58082707 35.60103362 412.57935948 33.10760498 412.57794189 C31.30731589 412.580525 29.50702738 412.58353801 27.70673966 412.5869453 C22.74873135 412.59502491 17.7907375 412.5968054 12.83272338 412.59754276 C7.48971018 412.59939164 2.14670453 412.60693811 -3.19630432 412.61367798 C-14.88424736 412.62726847 -26.57218698 412.63328708 -38.2601366 412.63768864 C-45.5556044 412.64044974 -52.85107088 412.64468685 -60.14653778 412.64919281 C-80.33842511 412.66138621 -100.53031137 412.67168552 -120.7222023 412.6750679 C-122.01489544 412.67528747 -123.30758857 412.67550703 -124.63945423 412.67573325 C-125.93527043 412.67595153 -127.23108662 412.67616981 -128.56616998 412.6763947 C-131.19206254 412.67683817 -133.8179551 412.67728473 -136.44384766 412.67773438 C-137.74638582 412.6779558 -139.04892399 412.67817723 -140.39093301 412.67840537 C-161.50173227 412.68235428 -182.61249703 412.69981082 -203.72328296 412.7230939 C-225.38804735 412.74679546 -247.05279441 412.7592692 -268.71757197 412.76043582 C-280.88533452 412.76135323 -293.05305212 412.76712222 -305.22080231 412.78525543 C-315.58096491 412.80064026 -325.94106868 412.80578643 -336.30124053 412.79751733 C-341.58824944 412.79360515 -346.87513978 412.79456815 -352.16213417 412.80857468 C-357.00193539 412.82127937 -361.84152855 412.82014627 -366.68132934 412.80798396 C-368.43235192 412.80602102 -370.18338908 412.8091329 -371.93439117 412.81782833 C-374.31551293 412.82890442 -376.69589823 412.82144405 -379.07699966 412.8094368 C-380.09540885 412.82082959 -380.09540885 412.82082959 -381.13439196 412.83245254 C-386.89362666 412.76980653 -392.46831271 411.48797931 -396.93359375 407.68359375 C-397.38863281 407.08675781 -397.84367187 406.48992187 -398.3125 405.875 C-398.78558594 405.27558594 -399.25867188 404.67617188 -399.74609375 404.05859375 C-402.1304333 400.63471516 -402.01777332 398.16926481 -402.05200195 394.01586914 C-402.06185875 393.02779518 -402.06185875 393.02779518 -402.07191467 392.01976013 C-402.0916451 389.83739106 -402.10330789 387.65509069 -402.11328125 385.47265625 C-402.11735678 384.72802061 -402.1214323 383.98338497 -402.12563133 383.21618462 C-402.14648825 379.27701977 -402.16079312 375.33788976 -402.17016602 371.39868164 C-402.1812464 367.32506456 -402.21566533 363.25199136 -402.25533772 359.17856693 C-402.28144427 356.04991113 -402.28985235 352.9213863 -402.29344749 349.79263115 C-402.29832682 348.29067742 -402.30997905 346.78873004 -402.32848549 345.2868824 C-402.3527585 343.18698697 -402.35193519 341.08851727 -402.3449707 338.98852539 C-402.35083694 337.79320694 -402.35670319 336.59788849 -402.36274719 335.36634827 C-401.875 332.4375 -401.875 332.4375 -399.97111511 330.54438782 C-397.6146557 329.30002094 -396.38579728 329.14098589 -393.75 329.3203125 C-392.9664917 329.35616455 -392.1829834 329.3920166 -391.37573242 329.42895508 C-390.13786987 329.49505981 -390.13786987 329.49505981 -388.875 329.5625 C-379.16156651 329.82372795 -371.52639495 327.99780201 -363.5 322.25 C-355.20297253 313.36032771 -352.35899853 304.19325041 -352.5703125 292.1953125 C-353.255728 283.74185468 -356.67187937 277.60599913 -362.45703125 271.484375 C-371.78420109 263.58867711 -381.15413663 262.19940058 -392.8125 262.65234375 C-398.3786301 262.7597603 -398.3786301 262.7597603 -400.59147644 261.32310486 C-402.48111594 258.54706433 -402.2491076 256.34750833 -402.24731445 253.01000977 C-402.25096512 252.36250763 -402.25461578 251.71500549 -402.25837708 251.04788208 C-402.26648136 248.90795643 -402.25287299 246.76878844 -402.23828125 244.62890625 C-402.23776256 243.14061992 -402.2382806 241.6523329 -402.23979187 240.16404724 C-402.23970215 237.04440079 -402.22927434 233.92501276 -402.21118164 230.80541992 C-402.18851403 226.80941429 -402.18794678 222.81378692 -402.19469929 218.81773472 C-402.19804362 215.74391833 -402.19140012 212.67018793 -402.18157005 209.59638786 C-402.17772429 208.12321358 -402.17656725 206.65002972 -402.1781559 205.17685127 C-402.17852743 203.1158444 -402.16588188 201.05531917 -402.1496582 198.99438477 C-402.14505081 197.82206802 -402.14044342 196.64975128 -402.13569641 195.44190979 C-401.88473334 192.54967236 -401.38500704 190.88064456 -399.875 188.4375 C-407.69817517 187.99606692 -413.56985821 188.33655464 -420.71875 191.59765625 C-423.80771464 192.8007856 -425.81084379 192.63326828 -428.875 191.4375 C-431.47134084 188.54411011 -432.55623983 185.84236235 -433.5925293 182.125 C-434.04265633 180.5318396 -434.04265633 180.5318396 -434.50187683 178.90649414 C-434.81449966 177.76172607 -435.1271225 176.61695801 -435.44921875 175.4375 C-435.77791458 174.2508374 -436.10661041 173.0641748 -436.44526672 171.84155273 C-437.13812002 169.32776226 -437.82624882 166.81266556 -438.51000977 164.29638672 C-439.55225942 160.47504641 -440.61992626 156.66143854 -441.68945312 152.84765625 C-442.3609477 150.39886822 -443.03091797 147.94966158 -443.69921875 145.5 C-444.17726204 143.80713867 -444.17726204 143.80713867 -444.66496277 142.08007812 C-446.81321981 134.04282682 -449.23820945 124.25954994 -445.25 116.4375 C-439.47395077 109.14143782 -431.9807127 107.8161461 -423.29296875 105.5859375 C-421.88902529 105.21645633 -420.48536165 104.84591054 -419.08195496 104.47439575 C-416.0324912 103.66931807 -412.9813167 102.87121428 -409.9286499 102.07836914 C-404.94822355 100.78453947 -399.97208619 99.47472296 -394.99658203 98.16210938 C-389.62588109 96.74577513 -384.25502592 95.33005927 -378.88293457 93.91900635 C-365.58221557 90.42427132 -352.29354217 86.88615711 -339.01171875 83.3203125 C-337.56698999 82.93245606 -337.56698999 82.93245606 -336.0930748 82.53676414 C-331.15324689 81.2103684 -326.21360655 79.8832756 -321.27404785 78.55587769 C-311.04707749 75.80789961 -300.81852696 73.0658131 -290.58984375 70.32421875 C-289.5525626 70.04617716 -288.51528145 69.76813557 -287.44656754 69.48166847 C-261.57483369 62.54754506 -235.69391657 55.64787789 -209.8125 48.75 C-207.54004908 48.14433856 -205.26759831 47.53867653 -202.99514771 46.93301392 C-201.87921895 46.63559327 -200.7632902 46.33817263 -199.61354542 46.03173923 C-194.15120596 44.57589134 -188.68887757 43.1200019 -183.2265625 41.6640625 C-182.17989599 41.38508558 -181.13322948 41.10610867 -180.05484581 40.8186779 C-163.5961549 36.4316103 -147.13987292 32.03571062 -130.6875 27.625 C-128.65771596 27.08096914 -126.62793081 26.53694243 -124.59814453 25.99291992 C-120.30889041 24.84320659 -116.01967133 23.69336262 -111.73046875 22.54345703 C-109.83577484 22.03551447 -107.94108091 21.52757197 -106.04638672 21.01963043 C-104.51171586 20.60819814 -102.9770482 20.19675391 -101.44238281 19.78530121 C-89.84582892 16.67621879 -78.24893601 13.56840679 -66.65136242 10.46313 C-61.69765156 9.13671248 -56.74409772 7.80971503 -51.79092407 6.48129272 C-47.13667431 5.23304488 -42.48203035 3.98627798 -37.8270874 2.74061775 C-36.0935301 2.27643448 -34.36011904 1.81170471 -32.62686157 1.34640312 C-30.23445878 0.70424442 -27.84154012 0.06404413 -25.44848633 -0.57568359 C-24.75013074 -0.76362897 -24.05177515 -0.95157434 -23.33225727 -1.14521503 C-14.78502915 -3.42455788 -8.08116916 -4.39193976 0 0 Z " fill="#00C08C" transform="translate(446.875,51.5625)"/>
<path d="M0 0 C2.0545482 3.0818223 2.7994614 5.38289792 3.76953125 8.93359375 C4.09840332 10.12984375 4.42727539 11.32609375 4.76611328 12.55859375 C5.11514343 13.8514992 5.46393378 15.1444694 5.8125 16.4375 C6.17407212 17.76308749 6.53589023 19.08860791 6.89794922 20.4140625 C9.11062231 28.54671784 11.21059035 36.70328765 13.20849609 44.89135742 C14.64368664 50.72144431 16.2577321 56.48602722 17.9375 62.25 C21.0362261 72.88989135 23.69387732 83.62485611 26.34912109 94.38232422 C29.1436565 105.62126221 32.31487865 116.76072212 35.45092773 127.90795898 C36.02262092 129.9400904 36.59256038 131.9727161 37.16064453 134.00585938 C37.72802978 136.02983049 38.30210561 138.05193609 38.88232422 140.07226562 C39.15705566 141.04357422 39.43178711 142.01488281 39.71484375 143.015625 C39.96226318 143.87961914 40.20968262 144.74361328 40.46459961 145.63378906 C41 148 41 148 41 152 C40.37671074 152.00021737 39.75342149 152.00043474 39.11124468 152.00065869 C2.16829305 152.01417517 -34.77454605 152.05365933 -71.71742937 152.12685562 C-76.1534161 152.13562235 -80.58940322 152.14417216 -85.02539062 152.15258789 C-86.35007586 152.15510648 -86.35007586 152.15510648 -87.70152241 152.15767596 C-102.00008033 152.18434422 -116.29859816 152.19344091 -130.5971784 152.19604143 C-145.26935411 152.19910111 -159.94141393 152.22104951 -174.61353731 152.26052457 C-183.66673262 152.28428691 -192.71969656 152.293324 -201.77291876 152.28351311 C-207.98145033 152.27819649 -214.18977462 152.29123086 -220.39824718 152.3186629 C-223.98005967 152.33394819 -227.56140826 152.34117354 -231.14323425 152.32659721 C-235.02931488 152.31099454 -238.91462693 152.33405138 -242.80065918 152.36076355 C-243.92907714 152.35009029 -245.05749511 152.33941703 -246.22010756 152.32842034 C-253.4603608 152.42135051 -258.76073376 153.76073376 -264 159 C-266.31095251 159.13418434 -268.62406881 159.2316108 -270.9375 159.3125 C-276.85517095 159.58649877 -281.53261525 160.74594946 -286.9140625 163.1953125 C-289.96893188 164.37378271 -291.97850577 164.1791197 -295 163 C-297.59634084 160.10661011 -298.68123983 157.40486235 -299.7175293 153.6875 C-300.16765633 152.0943396 -300.16765633 152.0943396 -300.62687683 150.46899414 C-300.93949966 149.32422607 -301.2521225 148.17945801 -301.57421875 147 C-301.90291458 145.8133374 -302.23161041 144.6266748 -302.57026672 143.40405273 C-303.26312002 140.89026226 -303.95124882 138.37516556 -304.63500977 135.85888672 C-305.67725942 132.03754641 -306.74492626 128.22393854 -307.81445312 124.41015625 C-308.4859477 121.96136822 -309.15591797 119.51216158 -309.82421875 117.0625 C-310.30226204 115.36963867 -310.30226204 115.36963867 -310.78996277 113.64257812 C-312.93821981 105.60532682 -315.36320945 95.82204994 -311.375 88 C-305.59895077 80.70393782 -298.1057127 79.3786461 -289.41796875 77.1484375 C-288.01402529 76.77895633 -286.61036165 76.40841054 -285.20695496 76.03689575 C-282.1574912 75.23181807 -279.1063167 74.43371428 -276.0536499 73.64086914 C-271.07322355 72.34703947 -266.09708619 71.03722296 -261.12158203 69.72460938 C-255.75088109 68.30827513 -250.38002592 66.89255927 -245.00793457 65.48150635 C-231.70721554 61.98677131 -218.41854325 58.44865314 -205.13671875 54.8828125 C-203.6910553 54.49470681 -203.6910553 54.49470681 -202.21618652 54.0987606 C-197.2742407 52.7718031 -192.33248265 51.4441478 -187.39080811 50.11618042 C-177.20562931 47.37941672 -167.0189079 44.64840476 -156.83203125 41.91796875 C-155.79839447 41.64089899 -154.76475769 41.36382923 -153.69979858 41.07836342 C-123.79667934 33.06365183 -93.88192216 25.09249652 -63.96679688 17.12273598 C-58.67704493 15.7134785 -53.38733531 14.30406226 -48.09765625 12.89453125 C-47.10231117 12.62931293 -46.10696609 12.36409462 -45.08145905 12.09083939 C-30.04782513 8.08450592 -15.01865672 4.0621818 0 0 Z " fill="#25304F" transform="translate(313,80)"/>
<path d="M0 0 C2.32604624 3.5086644 2.25888183 6.61017872 2.2746582 10.75634766 C2.27976913 11.42671555 2.28488007 12.09708344 2.29014587 12.7877655 C2.30401134 14.99662271 2.30308816 17.20516704 2.30078125 19.4140625 C2.30466846 20.95055253 2.30900318 22.48704149 2.31376648 24.02352905 C2.32122107 27.23967987 2.32094193 30.45572087 2.31567383 33.671875 C2.30986505 37.79926933 2.32684739 41.92621697 2.3500185 46.05353737 C2.36472294 49.2241988 2.36563233 52.39475164 2.36250877 55.56544113 C2.36302315 57.08773054 2.36828268 58.61002585 2.37832069 60.13228226 C2.39061142 62.25596819 2.38394024 64.3787704 2.37231445 66.50244141 C2.37294388 67.71171295 2.3735733 68.9209845 2.3742218 70.16690063 C2.25072861 71.10182343 2.12723541 72.03674622 2 73 C-1.90085112 75.60056741 -5.00895441 75.05640086 -9.5 74.875 C-20.41695765 74.6529159 -29.62059654 76.95783373 -37.7734375 84.6796875 C-44.55334635 91.80288287 -47.19343603 98.68006369 -47.5 108.5 C-47.30706871 115.09958081 -46.18608677 120.22917396 -43 126 C-42.67257812 126.63292969 -42.34515625 127.26585937 -42.0078125 127.91796875 C-38.012037 134.52412313 -30.8117874 138.60067876 -23.72265625 141.203125 C-18.55244227 142.30986545 -13.66341962 142.06024471 -8.40820312 141.83398438 C-7.64056641 141.81529297 -6.87292969 141.79660156 -6.08203125 141.77734375 C-5.04912964 141.73468384 -5.04912964 141.73468384 -3.99536133 141.69116211 C-1.19780529 142.12416203 -0.01543538 143.00829478 2 145 C2.50793457 147.89520264 2.50793457 147.89520264 2.51757812 151.47167969 C2.5245874 152.12411652 2.53159668 152.77655334 2.53881836 153.44876099 C2.55642986 155.60689823 2.54476078 157.76372424 2.53125 159.921875 C2.53394536 161.42539725 2.53782814 162.92891779 2.54284668 164.43243408 C2.54874702 167.58663497 2.54016701 170.74038301 2.52148438 173.89453125 C2.49877212 177.92413077 2.51176415 181.95266006 2.53577423 185.9822197 C2.55028526 189.08966001 2.5456008 192.19685021 2.53526306 195.3042984 C2.53260629 196.78895445 2.53582843 198.27363367 2.54518127 199.75826263 C2.61595432 214.15955967 2.61595432 214.15955967 -2 220 C-32.93106555 246.4542008 -83.29919466 225 -124 225 C-124 148.77 -124 72.54 -124 -6 C-7.37657961 -7.04128054 -7.37657961 -7.04128054 0 0 Z " fill="#00C18C" transform="translate(510,239)"/>
<path d="M0 0 C5.80718771 6.66118591 7.60487256 16.05276215 9.83203125 24.390625 C10.16168381 25.60901062 10.49133636 26.82739624 10.83097839 28.08270264 C11.52122725 30.64340286 12.20829718 33.20471549 12.89038086 35.76757812 C13.76332092 39.04478493 14.65296444 42.31719689 15.54710865 45.58867264 C16.40218507 48.72828244 17.24122294 51.87216934 18.08203125 55.015625 C18.40275101 56.18651672 18.72347076 57.35740845 19.0539093 58.56378174 C19.34138535 59.65551697 19.62886139 60.7472522 19.92504883 61.87207031 C20.18167801 62.8286554 20.43830719 63.78524048 20.70271301 64.77081299 C21.15616036 67.63427357 20.86854189 69.65449116 20.125 72.4375 C18.908125 72.85 17.69125 73.2625 16.4375 73.6875 C15.62023437 73.96464844 14.80296875 74.24179688 13.9609375 74.52734375 C11.95949171 75.16968103 9.94147797 75.76145676 7.9140625 76.31640625 C-2.39013528 79.18668978 -8.95823035 82.84718659 -14.62109375 92.08984375 C-18.94720782 100.18951527 -20.31559473 108.22922272 -18.21875 117.265625 C-14.95910245 127.32557176 -9.57016336 134.03068908 -0.40234375 139.24609375 C7.4351203 142.94072518 15.76470716 144.08205711 24.16796875 141.50390625 C26.00725154 140.77073008 27.84461769 140.03272053 29.6796875 139.2890625 C33.47349827 137.96789517 35.37175502 137.95184053 39.125 139.4375 C44.73441327 152.52613096 47.48108834 166.67161152 51.125 180.4375 C7.895 180.4375 -35.335 180.4375 -79.875 180.4375 C-81.88845085 175.73944802 -83.37093258 172.04894536 -84.5234375 167.2265625 C-84.80380859 166.07349609 -85.08417969 164.92042969 -85.37304688 163.73242188 C-85.66244141 162.52134766 -85.95183594 161.31027344 -86.25 160.0625 C-89.08348223 148.43761515 -89.08348223 148.43761515 -92.375 136.9375 C-95.02941086 128.28797269 -97.12788287 119.50591191 -99.2890625 110.72265625 C-100.85082193 104.41450621 -102.46920408 98.1503947 -104.375 91.9375 C-107.0241194 83.30137075 -109.12191863 74.53417729 -111.27807617 65.7644043 C-113.11117459 58.35607156 -115.09230247 51.02398308 -117.30151367 43.7199707 C-119.13676532 37.64074844 -120.875 31.82822521 -120.875 25.4375 C-100.33750047 19.25984115 -79.62709764 13.7669687 -58.89709473 8.28033447 C-55.24517159 7.31285535 -51.59414773 6.3420066 -47.94312763 5.37112617 C-44.40815895 4.43139299 -40.87277149 3.49324387 -37.33724022 2.55562973 C-35.65824658 2.11026244 -33.97935227 1.66452051 -32.3005619 1.2183876 C-29.97201965 0.59994319 -27.64295216 -0.01648139 -25.3137207 -0.63232422 C-24.63069382 -0.81409714 -23.94766693 -0.99587006 -23.24394226 -1.18315125 C-14.72814938 -3.42880904 -8.04521498 -4.37239945 0 0 Z " fill="#25304F" transform="translate(446.875,51.5625)"/>
<path d="M0 0 C5.70264533 3.53564011 7.81331971 7.77637149 10 14 C10.226875 14.639375 10.45375 15.27875 10.6875 15.9375 C12.3963484 21.63366133 13.15102834 28.16436679 12 34 C8.84510011 37.98901911 6.19919842 39.66114661 1.3125 40.875 C0.07628906 41.19597656 -1.15992188 41.51695312 -2.43359375 41.84765625 C-3.14499512 42.02570801 -3.85639648 42.20375977 -4.58935547 42.38720703 C-8.38865624 43.35300052 -12.16808398 44.39104968 -15.95117188 45.41821289 C-19.331657 46.33463659 -22.71433787 47.24253342 -26.09765625 48.1484375 C-30.52400627 49.33434416 -34.94857001 50.5264669 -39.37109375 51.7265625 C-45.90997956 53.4997768 -52.45324811 55.25605444 -59 57 C-59.64932495 57.17311707 -60.2986499 57.34623413 -60.96765137 57.52459717 C-65.1451772 58.63730032 -69.32489248 59.74125287 -73.50723267 60.83572388 C-74.85886088 61.19037401 -76.20993441 61.54714613 -77.56039429 61.90621948 C-96.98471624 67.06467821 -96.98471624 67.06467821 -102.3125 64.25 C-106.19673844 60.39804055 -107.46263218 55.10731328 -109 50 C-109.4125 48.824375 -109.825 47.64875 -110.25 46.4375 C-111.46878466 40.85140365 -112.44905464 35.41984986 -109.4140625 30.3515625 C-106.4074423 27.4227836 -104.02733384 26.65538266 -100 25.5 C-99.30575928 25.29697266 -98.61151855 25.09394531 -97.89624023 24.88476562 C-91.47633621 23.04301891 -84.98632183 21.45639188 -78.49829102 19.875 C-73.0986041 18.55309137 -67.76052804 17.1019732 -62.4375 15.5 C-50.99767023 12.06471973 -39.42967941 9.13937127 -27.86328125 6.1640625 C-26.63528809 5.84743652 -25.40729492 5.53081055 -24.14208984 5.20458984 C-21.69898485 4.5750564 -19.25531058 3.94772752 -16.81103516 3.32275391 C-15.69647949 3.03577637 -14.58192383 2.74879883 -13.43359375 2.453125 C-12.43384521 2.19692383 -11.43409668 1.94072266 -10.40405273 1.67675781 C-3.15465541 -0.3639987 -3.15465541 -0.3639987 0 0 Z " fill="#D1DFF3" transform="translate(168,148)"/>
<path d="M0 0 C0.92108047 -0.00860046 1.84216095 -0.01720093 2.79115295 -0.02606201 C4.31145615 -0.03245193 4.31145615 -0.03245193 5.86247253 -0.03897095 C6.92762589 -0.04714844 7.99277924 -0.05532593 9.09020996 -0.06375122 C12.62651501 -0.08863016 16.16277988 -0.10512681 19.69914246 -0.11953735 C20.90464941 -0.12486103 22.11015636 -0.13018471 23.35219383 -0.13566971 C29.73159017 -0.16241089 36.11096686 -0.18178359 42.49040222 -0.19619751 C49.08830434 -0.21285657 55.68570805 -0.25764287 62.28342152 -0.30856895 C67.34914746 -0.3421798 72.41475416 -0.35376819 77.48058128 -0.35942459 C79.91310629 -0.36615302 82.34562303 -0.38141602 84.77803993 -0.4053154 C88.18029871 -0.43683899 91.58120056 -0.43702242 94.98356628 -0.42959595 C95.99102905 -0.44600128 96.99849182 -0.46240662 98.03648376 -0.47930908 C102.75886109 -0.43704838 104.89257547 -0.40933026 108.71920776 2.56536865 C112.70875956 8.00667839 111.8766876 13.39328786 111.92961121 19.96640015 C111.97311707 21.75014038 111.97311707 21.75014038 112.01750183 23.56991577 C112.02588074 24.71782593 112.03425964 25.86573608 112.04289246 27.0484314 C112.05747498 28.09877563 112.0720575 29.14911987 112.08708191 30.23129272 C111.49344173 33.92296371 110.2292961 35.51819497 107.61711121 38.15390015 C104.69681489 39.91899554 102.53931585 40.40556619 99.14556885 40.41459656 C98.25539566 40.42168137 97.36522247 40.42876617 96.44807434 40.43606567 C95.47913239 40.43358826 94.51019043 40.43111084 93.5118866 40.42855835 C92.48545547 40.43366928 91.45902435 40.43878021 90.40148926 40.44404602 C87.00585614 40.45795502 83.61042569 40.45698428 80.21476746 40.4546814 C77.85591557 40.45856752 75.49706439 40.46290202 73.13821411 40.46766663 C68.19276156 40.4751316 63.24738039 40.47483546 58.30192566 40.46957397 C51.96202728 40.46377817 45.62242093 40.48071194 39.28257084 40.50391865 C34.41070851 40.51864456 29.5389167 40.51952925 24.66703606 40.51640892 C22.32944091 40.51692268 19.99184187 40.52217058 17.65426826 40.53222084 C14.38656209 40.54454587 11.11942725 40.53781688 7.85173035 40.5262146 C6.40135376 40.53768021 6.40135376 40.53768021 4.92167664 40.54937744 C-1.12854905 40.50185392 -4.77371038 39.79162147 -9.16828918 35.34896851 C-11.74432594 30.69346167 -10.85024285 24.90286313 -10.82038879 19.71640015 C-10.84036926 18.48856812 -10.86034973 17.26073608 -10.88093567 15.99569702 C-10.88029114 14.81169312 -10.87964661 13.62768921 -10.87898254 12.4078064 C-10.88083557 11.32829712 -10.8826886 10.24878784 -10.88459778 9.13656616 C-10.26758407 5.46841216 -8.93937474 3.80517012 -6.38288879 1.15390015 C-4.03293424 -0.02107713 -2.6203108 0.01818688 0 0 Z " fill="#B0CDEA" transform="translate(127.38288879394531,266.8460998535156)"/>
<path d="M0 0 C3.96 0 7.92 0 12 0 C12 76.23 12 152.46 12 231 C8.04 231 4.08 231 0 231 C0 154.77 0 78.54 0 0 Z " fill="#B2CDEB" transform="translate(374,233)"/>
<path d="M0 0 C0.88728301 -0.00467997 1.77456601 -0.00935994 2.68873638 -0.01418173 C5.67373961 -0.02618594 8.65828833 -0.01665336 11.64329529 -0.00723267 C13.77839934 -0.01129593 15.9135013 -0.01663642 18.04859924 -0.02316284 C23.85627408 -0.0368706 29.66378953 -0.03152372 35.47146726 -0.02202559 C41.53907795 -0.01444788 47.60667468 -0.02146924 53.67428589 -0.02618408 C63.86401326 -0.03164673 74.05367546 -0.0244362 84.24339294 -0.01016235 C96.03876196 0.00616947 107.83397546 0.00087378 119.62934071 -0.01564157 C129.74231348 -0.0292367 139.85523932 -0.0311859 149.96821827 -0.02332556 C156.01459011 -0.01863874 162.06088874 -0.01805192 168.10725594 -0.02793503 C173.78960739 -0.03657389 179.47175747 -0.03063934 185.15408707 -0.01325226 C187.24473294 -0.00927108 189.33539565 -0.01044912 191.42603493 -0.01704025 C194.26960698 -0.02518152 197.11252485 -0.01502461 199.95605469 0 C201.21075029 -0.01003825 201.21075029 -0.01003825 202.49079329 -0.02027929 C204.78785038 0.00342751 204.78785038 0.00342751 208.41453552 0.38095093 C210.72815354 3.85137796 210.92474281 5.29929266 210.41453552 9.38095093 C207.92526153 12.16476332 206.34296978 12.38807012 202.59140015 12.76126766 C201.00642043 12.77908142 199.42120345 12.78027261 197.83616638 12.76863098 C196.52445292 12.77670929 196.52445292 12.77670929 195.1862402 12.78495079 C192.25047753 12.79927999 189.3151626 12.79211444 186.37937927 12.78500366 C184.27692806 12.79070459 182.17447995 12.79766777 180.07203674 12.80580139 C174.3572668 12.82377741 168.64265002 12.82255619 162.92786026 12.81685901 C158.16116569 12.81377393 153.39450083 12.81985193 148.62781048 12.82589775 C137.38579537 12.83995564 126.14385623 12.83837084 114.90184021 12.82699585 C103.29334036 12.8155098 91.6850714 12.82959572 80.07660198 12.85639232 C70.11813825 12.87852175 60.15974715 12.88519303 50.20126057 12.87931591 C44.24982488 12.87593896 38.29853727 12.87841048 32.34712219 12.89556694 C26.75252969 12.91099031 21.15828035 12.90713176 15.56370163 12.8882618 C13.50775597 12.88456329 11.45178513 12.88772085 9.39586258 12.89814758 C6.59447638 12.91127285 3.79424052 12.89988552 0.99290466 12.88215637 C0.17462157 12.89176138 -0.64366152 12.90136639 -1.48674107 12.91126245 C-5.08590155 12.86422405 -7.16785576 12.69242063 -10.0942688 10.50978184 C-11.58546448 8.38095093 -11.58546448 8.38095093 -12.02296448 5.81845093 C-10.85200383 -0.70547267 -5.51662705 -0.04425404 0 0 Z " fill="#ACCDE8" transform="translate(154.58546447753906,374.6190490722656)"/>
<path d="M0 0 C0.18062988 0.73822998 0.36125977 1.47645996 0.54736328 2.23706055 C3.75610981 15.31224656 7.01289127 28.34313444 10.79931641 41.2644043 C12.99270039 48.81316743 14.87833979 56.42575797 16.75024414 64.05957031 C18.36245459 70.58400909 20.1149028 77.04943303 22 83.5 C24.18018009 90.96030375 26.14888577 98.45138659 28 106 C30.71984895 117.08572917 33.80254648 128.04398335 37 139 C37.6316753 141.16472995 38.25817894 143.33099073 38.875 145.5 C39.09929687 146.2734375 39.32359375 147.046875 39.5546875 147.84375 C40 150 40 150 40 155 C36.04 155 32.08 155 28 155 C27.70867187 153.87207031 27.41734375 152.74414062 27.1171875 151.58203125 C24.89704906 143.04084414 22.59651203 134.53449075 20.125 126.0625 C17.33409303 116.46552183 14.92304886 106.78830971 12.53564453 97.08422852 C10.82954416 90.19145096 8.99560967 83.37614848 6.91381836 76.58886719 C4.86408147 69.78803491 3.19686609 62.8958425 1.5 56 C-0.56709378 47.60347171 -2.7087929 39.26359753 -5.21557617 30.98779297 C-6.85505649 25.56116101 -8.35821574 20.10411142 -9.8125 14.625 C-10.03180176 13.80894287 -10.25110352 12.99288574 -10.47705078 12.15209961 C-11.29870699 9.0276176 -12 6.2452288 -12 3 C-10.37604003 2.49663233 -8.75079459 1.99741024 -7.125 1.5 C-6.22007812 1.2215625 -5.31515625 0.943125 -4.3828125 0.65625 C-2 0 -2 0 0 0 Z " fill="#CEDCF0" transform="translate(326,77)"/>
<path d="M0 0 C1.13569931 -0.00845947 2.27139862 -0.01691895 3.44151306 -0.02563477 C4.6883638 -0.01956207 5.93521454 -0.01348938 7.21984863 -0.00723267 C9.18837547 -0.0151181 9.18837547 -0.0151181 11.19667053 -0.02316284 C14.79790345 -0.03685294 18.39887886 -0.03153096 22.00011635 -0.02202559 C25.76636074 -0.01443769 29.53258288 -0.02147217 33.29882812 -0.02618408 C39.62394169 -0.03164419 45.94895022 -0.02444339 52.27404785 -0.01016235 C59.58988789 0.00616472 66.90547713 0.00087639 74.22131109 -0.01564157 C80.49909537 -0.02924923 86.77680408 -0.03117965 93.05459833 -0.02332556 C96.80555998 -0.01864505 100.55640369 -0.01803448 104.30735779 -0.02793503 C108.48797495 -0.03819859 112.66815875 -0.02397911 116.84875488 -0.00723267 C118.09560562 -0.01330536 119.34245636 -0.01937805 120.62709045 -0.02563477 C122.33063942 -0.01294556 122.33063942 -0.01294556 124.06860352 0 C125.0574781 0.00113108 126.04635269 0.00226215 127.06519318 0.00342751 C129.53430176 0.38095093 129.53430176 0.38095093 131.3524704 1.71726036 C133.19159173 4.30623279 132.91918168 6.30191157 132.53430176 9.38095093 C131.3524704 11.04422092 131.3524704 11.04422092 129.53430176 12.38095093 C127.06519318 12.76126766 127.06519318 12.76126766 124.06860352 12.76863098 C122.93290421 12.77853561 121.7972049 12.78844025 120.62709045 12.79864502 C119.38023972 12.79414337 118.13338898 12.78964172 116.84875488 12.78500366 C115.53640366 12.79186691 114.22405243 12.79873016 112.87193298 12.80580139 C109.27071378 12.82376748 105.66973776 12.82255819 102.06848717 12.81685901 C99.06383963 12.81377248 96.05923918 12.81985352 93.05459833 12.82589775 C85.96787774 12.83995233 78.88127768 12.83837364 71.79455566 12.82699585 C64.47866303 12.81550983 57.16313677 12.82959602 49.84729242 12.85639232 C43.5695037 12.8785272 37.29183017 12.88519185 31.01400518 12.87931591 C27.26299613 12.87594023 23.51222204 12.87840165 19.76124573 12.89556694 C15.58054278 12.91386334 11.40055605 12.89987199 7.21984863 12.88265991 C5.97299789 12.89232788 4.72614716 12.90199585 3.44151306 12.91195679 C2.30581375 12.90212265 1.17011444 12.89228851 0 12.88215637 C-1.48331188 12.88184245 -1.48331188 12.88184245 -2.99658966 12.88152218 C-5.46569824 12.38095093 -5.46569824 12.38095093 -7.28386688 10.50978184 C-8.74955856 7.8696338 -8.92370235 6.35797763 -8.46569824 3.38095093 C-6.04699235 0.04803416 -3.98247479 0.00455516 0 0 Z " fill="#B0CDEA" transform="translate(151.4656982421875,420.6190490722656)"/>
<path d="M0 0 C1.56460968 -0.01475121 1.56460968 -0.01475121 3.16082764 -0.02980042 C4.86906708 -0.01529846 4.86906708 -0.01529846 6.61181641 -0.00050354 C8.41721893 -0.00860802 8.41721893 -0.00860802 10.25909424 -0.01687622 C13.55690523 -0.02724042 16.85371291 -0.01966174 20.15143585 -0.00316501 C23.60356551 0.01069194 27.05566507 0.00422469 30.5078125 0.0007019 C36.30493572 -0.00199973 42.10185184 0.01147111 47.89892578 0.03465271 C54.59960069 0.06126233 61.29992933 0.06300947 68.00063896 0.05126435 C74.4484894 0.04048219 80.89621467 0.04667701 87.34405518 0.06081963 C90.08720867 0.06657569 92.83027046 0.06649978 95.57342529 0.06175423 C99.40406377 0.05609248 103.23435628 0.07530971 107.06494141 0.09715271 C108.77318085 0.09040024 108.77318085 0.09040024 110.51593018 0.08351135 C111.5590033 0.09341599 112.60207642 0.10332062 113.67675781 0.11352539 C114.58229401 0.11595529 115.4878302 0.11838518 116.42080688 0.12088871 C119.34670679 0.58117229 120.73093959 1.44031291 122.83837891 3.50120544 C123.34858619 7.58286371 123.15199693 9.03077841 120.83837891 12.50120544 C118.61725712 12.87872887 118.61725712 12.87872887 115.79664612 12.88215637 C114.196129 12.89484558 114.196129 12.89484558 112.5632782 12.90779114 C111.38763809 12.90171844 110.21199799 12.89564575 109.00073242 12.88938904 C107.76655579 12.894646 106.53237915 12.89990295 105.26080322 12.90531921 C101.87014006 12.91628402 98.48002387 12.91368101 95.08939099 12.90418196 C91.5446887 12.89660013 88.00001019 12.903627 84.45530701 12.90834045 C78.5008422 12.91380305 72.5464889 12.906594 66.59204102 12.89231873 C59.70508458 12.87599864 52.81839466 12.88127387 45.9314447 12.89779794 C40.02310292 12.91140746 34.11484142 12.91333489 28.20648903 12.90548193 C24.67572183 12.90080148 21.14507993 12.90019053 17.61432076 12.9100914 C13.67791495 12.920358 9.74180808 12.90613226 5.80541992 12.88938904 C4.04499611 12.89849808 4.04499611 12.89849808 2.24900818 12.90779114 C0.64426132 12.89510193 0.64426132 12.89510193 -0.99290466 12.88215637 C-1.92408332 12.8810253 -2.85526197 12.87989422 -3.81465816 12.87872887 C-6.60794465 12.42941156 -7.49655383 11.75282172 -9.16162109 9.50120544 C-9.59912109 7.06370544 -9.59912109 7.06370544 -9.16162109 4.50120544 C-6.30572683 0.93485086 -4.53860552 0.00104894 0 0 Z " fill="#ABCDE8" transform="translate(242.16162109375,327.49879455566406)"/>
</svg>
